<svg preserveAspectRatio="none" overflow="visible" style="display: block;" width="30.9878" height="30.9895" viewBox="0 0 30.9878 30.9895" fill="none" xmlns="http://www.w3.org/2000/svg">
<g id="Group">
<path id="Vector" d="M5.17573 2.82027C3.05488 6.16636 1.5 11.8448 1.5 16.5094V26.3798C1.5 27.2045 1.82763 27.9955 2.41083 28.5787C2.99402 29.1619 3.785 29.4895 4.60976 29.4895H26.378C27.2028 29.4895 27.9938 29.1619 28.577 28.5787C29.1602 27.9955 29.4878 27.2045 29.4878 26.3798V18.6054C29.4878 14.9763 26.6641 11.3472 25.4109 7.71813" stroke="#0D4380" stroke-width="3" stroke-linecap="round" stroke-linejoin="round"/>
<path id="Vector_2" d="M7.71951 1.50173H25.4125C25.9901 1.50175 26.5563 1.66265 27.0476 1.96639C27.5389 2.27014 27.936 2.70472 28.1941 3.22142L29.3183 5.47133C29.4368 5.70833 29.4927 5.97165 29.4807 6.23632C29.4688 6.50099 29.3895 6.75823 29.2502 6.98362C29.111 7.20901 28.9164 7.39507 28.6851 7.52417C28.4537 7.65326 28.1932 7.7211 27.9283 7.72124H14.6729C14.0953 7.72122 13.5291 7.56032 13.0378 7.25658C12.5465 6.95283 12.1495 6.51825 11.8913 6.00155L10.5027 3.21987C10.3201 2.85447 10.0673 2.52863 9.75869 2.26094C9.45012 1.99326 9.09184 1.78897 8.70431 1.65975C7.92167 1.39877 7.0674 1.45938 6.32945 1.82825C5.5915 2.19713 5.0303 2.84404 4.76933 3.62669C4.50835 4.40933 4.56896 5.26359 4.93784 6.00155L8.45342 13.0327C8.99323 14.1122 9.27431 15.3025 9.27439 16.5094V29.4895" stroke="#0D4380" stroke-width="3" stroke-linecap="round" stroke-linejoin="round"/>
</g>
</svg>
